<?xml version="1.0" encoding="UTF-8"?>
<svg xmlns="http://www.w3.org/2000/svg" xmlns:xlink="http://www.w3.org/1999/xlink" viewBox="0 0 21 21" width="21px" height="21px">
<g id="surface6591932">
<path style="fill-rule:nonzero;fill:rgb(0%,0%,0%);fill-opacity:1;stroke-width:1;stroke-linecap:butt;stroke-linejoin:round;stroke:rgb(80.000001%,80.000001%,80.000001%);stroke-opacity:1;stroke-miterlimit:10;" d="M 161.672035 85.999999 C 161.672035 124.270544 133.18639 155.910532 96.235519 160.899543 L 92.340871 161.446725 L 92.340871 101.707337 L 111.524424 101.707337 L 113.39128 89.604962 L 92.340871 89.604962 L 92.340871 75.764478 C 92.340871 71.451398 92.984614 67.202691 95.012406 63.662102 C 97.040198 60.121514 100.967033 57.449979 105.730734 57.449979 L 114.163772 57.449979 L 114.163772 47.53633 C 111.749735 47.246646 109.239135 46.8604 102.769514 46.8604 C 94.690534 46.8604 88.896844 48.920379 84.937822 53.008149 C 81.010987 57.09592 78.629137 63.629915 78.629137 73.511377 L 78.629137 89.604962 L 60.765257 89.604962 L 60.765257 101.707337 L 78.629137 101.707337 L 78.629137 161.350164 L 74.702302 160.738607 C 38.266425 155.266788 10.327962 123.916485 10.327962 85.999999 C 10.327962 44.253239 44.253239 10.327962 85.999999 10.327962 C 127.746758 10.327962 161.672035 44.253239 161.672035 85.999999 Z M 17.216016 85.999999 C 17.216016 119.120597 40.648276 146.38313 71.773269 152.981499 L 71.773269 108.595392 L 53.877203 108.595392 L 53.877203 82.716907 L 71.773269 82.716907 L 71.773269 73.511377 C 71.773269 62.503364 74.476992 53.973764 79.980998 48.244448 C 85.517191 42.515132 93.499609 39.972345 102.769514 39.972345 C 111.266927 39.972345 115.998441 40.616089 118.05842 40.905773 L 121.051827 41.324206 L 121.051827 64.338033 L 105.730734 64.338033 C 103.123573 64.338033 102.061396 65.174899 100.967033 67.073942 C 99.872669 69.005173 99.228925 72.191703 99.228925 75.764478 L 99.228925 82.716907 L 121.438073 82.716907 L 117.414676 108.595392 L 99.228925 108.595392 L 99.228925 153.20681 C 130.836726 146.994686 154.783981 119.474655 154.783981 85.999999 C 154.783981 47.954763 124.045234 17.216016 85.999999 17.216016 C 47.954763 17.216016 17.216016 47.954763 17.216016 85.999999 Z M 17.216016 85.999999 " transform="matrix(0.12136,0,0,0.12136,0.063,0.063)"/>
<path style=" stroke:none;fill-rule:nonzero;fill:rgb(0%,0%,0%);fill-opacity:1;" d="M 10.5 1.316406 C 5.433594 1.316406 1.316406 5.433594 1.316406 10.5 C 1.316406 15.101562 4.707031 18.90625 9.128906 19.570312 L 9.605469 19.644531 L 9.605469 12.40625 L 7.4375 12.40625 L 7.4375 10.9375 L 9.605469 10.9375 L 9.605469 8.984375 C 9.605469 7.785156 9.894531 6.992188 10.371094 6.496094 C 10.851562 6 11.554688 5.75 12.535156 5.75 C 13.320312 5.75 13.625 5.796875 13.917969 5.832031 L 13.917969 7.035156 L 12.894531 7.035156 C 12.316406 7.035156 11.839844 7.359375 11.59375 7.789062 C 11.347656 8.21875 11.269531 8.734375 11.269531 9.257812 L 11.269531 10.9375 L 13.824219 10.9375 L 13.597656 12.40625 L 11.269531 12.40625 L 11.269531 19.65625 L 11.742188 19.589844 C 16.226562 18.984375 19.683594 15.144531 19.683594 10.5 C 19.683594 5.433594 15.566406 1.316406 10.5 1.316406 Z M 10.5 2.152344 C 15.117188 2.152344 18.847656 5.882812 18.847656 10.5 C 18.847656 14.5625 15.941406 17.902344 12.105469 18.65625 L 12.105469 13.242188 L 14.3125 13.242188 L 14.800781 10.101562 L 12.105469 10.101562 L 12.105469 9.257812 C 12.105469 8.824219 12.183594 8.4375 12.316406 8.203125 C 12.449219 7.972656 12.578125 7.871094 12.894531 7.871094 L 14.753906 7.871094 L 14.753906 5.078125 L 14.390625 5.027344 C 14.140625 4.992188 13.566406 4.914062 12.535156 4.914062 C 11.410156 4.914062 10.441406 5.222656 9.769531 5.917969 C 9.101562 6.613281 8.773438 7.648438 8.773438 8.984375 L 8.773438 10.101562 L 6.601562 10.101562 L 6.601562 13.242188 L 8.773438 13.242188 L 8.773438 18.628906 C 4.996094 17.828125 2.152344 14.519531 2.152344 10.5 C 2.152344 5.882812 5.882812 2.152344 10.5 2.152344 Z M 10.5 2.152344 "/>
</g>
</svg>
