<?xml version="1.0" encoding="UTF-8"?>
<svg xmlns="http://www.w3.org/2000/svg" xmlns:xlink="http://www.w3.org/1999/xlink" viewBox="0 0 24 24" width="24px" height="24px">
<g id="surface16334784">
<path style="fill-rule:nonzero;fill:rgb(100%,100%,100%);fill-opacity:1;stroke-width:19;stroke-linecap:butt;stroke-linejoin:round;stroke:rgb(0%,0%,0%);stroke-opacity:1;stroke-miterlimit:10;" d="M 165.131948 86.000002 C 165.131948 129.640773 129.640773 165.131948 86.000002 165.131948 C 42.359231 165.131948 6.868055 129.640773 6.868055 86.000002 C 6.868055 42.359231 42.359231 6.868055 86.000002 6.868055 C 129.640773 6.868055 165.131948 42.359231 165.131948 86.000002 Z M 61.92448 68.798757 L 48.144821 68.798757 L 48.144821 120.402491 L 61.92448 120.402491 Z M 61.92448 51.597513 C 61.92448 47.802663 58.845053 44.723236 55.050204 44.723236 C 51.224249 44.723236 48.144821 47.802663 48.144821 51.597513 C 48.144821 55.392362 51.224249 58.471789 55.050204 58.471789 C 58.845053 58.471789 61.92448 55.392362 61.92448 51.597513 Z M 127.276768 91.163486 C 127.276768 78.814672 117.260853 68.798757 104.912039 68.798757 C 98.908712 68.798757 93.46528 71.193867 89.452693 75.050927 L 89.452693 68.798757 L 75.673034 68.798757 L 75.673034 120.402491 L 89.452693 120.402491 L 89.452693 94.585072 C 89.452693 87.990743 94.865019 82.547311 101.490454 82.547311 C 108.115888 82.547311 113.528214 87.990743 113.528214 94.585072 L 113.528214 120.402491 L 127.276768 120.402491 Z M 127.276768 91.163486 " transform="matrix(0.125581,0,0,0.125581,1.2,1.2)"/>
<path style=" stroke:none;fill-rule:nonzero;fill:rgb(100%,100%,100%);fill-opacity:1;" d="M 12 2.0625 C 6.519531 2.0625 2.0625 6.519531 2.0625 12 C 2.0625 17.480469 6.519531 21.9375 12 21.9375 C 17.480469 21.9375 21.9375 17.480469 21.9375 12 C 21.9375 6.519531 17.480469 2.0625 12 2.0625 Z M 8.976562 16.320312 L 7.246094 16.320312 L 7.246094 9.839844 L 8.976562 9.839844 Z M 8.113281 8.542969 C 7.632812 8.542969 7.246094 8.15625 7.246094 7.679688 C 7.246094 7.203125 7.632812 6.816406 8.113281 6.816406 C 8.589844 6.816406 8.976562 7.203125 8.976562 7.679688 C 8.976562 8.15625 8.589844 8.542969 8.113281 8.542969 Z M 17.183594 16.320312 L 15.457031 16.320312 L 15.457031 13.078125 C 15.457031 12.25 14.777344 11.566406 13.945312 11.566406 C 13.113281 11.566406 12.433594 12.25 12.433594 13.078125 L 12.433594 16.320312 L 10.703125 16.320312 L 10.703125 9.839844 L 12.433594 9.839844 L 12.433594 10.625 C 12.9375 10.140625 13.621094 9.839844 14.375 9.839844 C 15.925781 9.839844 17.183594 11.097656 17.183594 12.648438 Z M 17.183594 16.320312 "/>
</g>
</svg>
